<?xml version="1.0" encoding="utf-8"?>
<svg viewBox="0 0 500 330" xmlns="http://www.w3.org/2000/svg">
  <g transform="matrix(1.171562, 0, 0, 1.169787, -25.216465, -154.903778)" style="">
    <rect x="444.788" y="412.122" width="35.346" height="0.259" style="fill:#ebebeb" transform="matrix(1, 0, 0, 1, -30.884987, -39.885277)"/>
    <rect x="344.204" y="414.935" width="9.274" height="0.259" style="fill:#ebebeb" transform="matrix(1, 0, 0, 1, -30.884987, -39.885277)"/>
    <rect x="423.241" y="402.524" width="20.48" height="0.259" style="fill:#ebebeb" transform="matrix(1, 0, 0, 1, -30.884987, -39.885277)"/>
    <rect x="17.451" y="345.657" width="46.092" height="0.259" style="fill:#ebebeb" transform="matrix(1, 0, 0, 1, 7.648979, 18.719915)"/>
    <rect x="111.587" y="404.262" width="6.755" height="0.259" style="fill:#ebebeb" transform="matrix(1, 0, 0, 1, -30.884987, -39.885277)"/>
    <rect x="109.42" y="368.741" width="99.975" height="0.259" style="fill:#ebebeb"/>
    <polygon points="442.002 354.603 442.002 251.865 417.713 251.865 417.713 204.571 414.277 204.571 414.277 231.677 404.939 231.677 404.939 224.179 388.13 224.179 388.13 198.221 385.014 198.221 385.014 166.502 382.517 166.502 382.517 197.652 376.604 197.652 376.604 243.788 365.388 243.788 365.388 197.652 345.154 197.652 345.154 236.673 323.895 236.673 323.895 189.368 320.48 189.368 320.48 216.485 311.132 216.485 311.132 208.987 294.323 208.987 294.323 183.028 291.207 183.028 291.207 151.299 288.71 151.299 288.71 182.449 282.797 182.449 282.797 228.595 271.581 228.595 271.581 182.449 251.347 182.449 251.347 227.086 237.698 227.086 237.698 201.127 234.581 201.127 234.581 169.408 232.084 169.408 232.084 200.558 226.172 200.558 226.172 246.694 214.966 246.694 214.966 200.558 194.721 200.558 194.721 246.694 184.754 246.694 184.754 251.865 167.294 251.865 167.294 204.571 163.869 204.571 163.869 231.677 154.531 231.677 154.531 224.179 137.711 224.179 137.711 198.221 134.606 198.221 134.606 166.502 132.109 166.502 132.109 197.652 126.677 197.652 126.677 195.046 106.442 195.046 106.442 197.652 95.226 197.652 95.226 195.046 89.314 195.046 89.314 163.906 86.817 163.906 86.817 195.625 83.711 195.625 83.711 221.584 66.892 221.584 66.892 229.082 57.543 229.082 57.543 201.975 54.128 201.975 54.128 249.269 29.839 249.269 29.839 354.603 442.002 354.603" style="fill:#f5f5f5"/>
    <path d="M 121.234 209.845 C 121.238 207.765 119.171 206.27 117.114 206.867 C 117.157 206.551 117.179 206.233 117.179 205.915 C 117.179 202.283 114.14 199.338 110.391 199.338 C 109.972 199.339 109.554 199.377 109.142 199.451 C 106.785 195.67 101.086 195.779 98.886 199.649 C 98.414 200.479 98.161 201.41 98.15 202.358 L 98.044 202.358 C 93.833 202.538 91.403 207.067 93.669 210.511 C 94.629 211.969 96.261 212.882 98.044 212.958 L 118.118 212.958 C 119.857 212.913 121.24 211.531 121.234 209.845 Z" style="fill:#f0f0f0"/>
    <g id="freepik--Shadow--inject-17" transform="matrix(1.067201, 0, 0, 1.034209, -30.884987, -39.885277)" style="">
      <ellipse id="freepik--path--inject-17" cx="250" cy="416.24" rx="193.89" ry="11.32" style="fill:#f5f5f5"/>
    </g>
    <g id="freepik--Trees--inject-17" transform="matrix(1.067201, 0, 0, 1.034209, -30.884987, -39.885277)" style="">
      <path d="M411.28,398.94c-.12-1-.07-2.43,1.16-2.83a3.92,3.92,0,0,0,3-3.78c-.07-1.68,1.95-3.31,3.45-1.74s1.31-1.2,3.32-1.88,3.72,1,3.17,2.46,1.44,2.43,3.81,1.16,5,1,4.49,2.85-.09,2,1.42,1.41a2.76,2.76,0,0,1,3.44,2.35Z" style="fill:#65B741"/>
      <path d="M439.48,338.41a3.81,3.81,0,0,0,.13-.81c.1-1.7,1.72-1.43,3.09-1.66,1.08-.18-1.77-2.9.4-3.78a1.89,1.89,0,0,0,1-.73,1.23,1.23,0,0,0-.47-1.5,3,3,0,0,0-1.65-.42c-.36-.43-.07-1.07.27-1.51s.77-.94.64-1.49c-.2-.81-1.34-.84-2.17-.68a6.32,6.32,0,0,1-.45-1.68c-.14-.56-.59-1.15-1.17-1.08s-.87.68-1.41.81-1.15-.41-1.64-.82-1.33-.66-1.67-.12c-.2.32-.08.77-.28,1.09-.36.55-1.22.21-1.75-.18s-1.38-.75-1.75-.2a2.09,2.09,0,0,0-.21.56c-.25.73-1,1.09-1.64,1.55s-1.1,1.39-.58,2c.26.28.7.39.83.75s-.3.85-.66,1.15c-.6.51-.71,2,.09,2.46.33.17.82.22.9.59s-.26.59-.48.84a1.58,1.58,0,0,0,.48,2.35c.19.09.43.16.5.36a.75.75,0,0,1-.05.44,2.46,2.46,0,0,0-.08.85.37.37,0,0,0,.11.27.35.35,0,0,0,.25.07c1.14,0,1.7-.35,2.4.64a.72.72,0,0,0,.23.26.71.71,0,0,0,.32.07c.79.07,1.3-.42,2-.51,1-.13,1.21.38,2.09.8C438.55,339.76,439.22,339.36,439.48,338.41Z" style="fill:#65B741"/>
      <path d="M426.3,337a4.74,4.74,0,0,0,.12-.82c.1-1.69,1.72-1.43,3.1-1.66,1.07-.18-1.78-2.9.39-3.77a1.92,1.92,0,0,0,1-.73,1.24,1.24,0,0,0-.47-1.51,2.92,2.92,0,0,0-1.65-.41c-.35-.43-.07-1.08.28-1.52s.76-.94.63-1.48c-.2-.82-1.34-.85-2.17-.69a5.79,5.79,0,0,1-.44-1.67c-.15-.57-.6-1.16-1.18-1.09s-.87.68-1.4.81-1.16-.4-1.64-.81-1.34-.67-1.67-.13c-.2.33-.08.78-.29,1.1-.36.55-1.22.21-1.75-.19s-1.38-.74-1.75-.2a2.27,2.27,0,0,0-.2.57c-.26.72-1,1.08-1.65,1.55s-1.09,1.39-.58,2c.26.28.71.39.83.75s-.29.84-.65,1.15c-.6.51-.71,2,.08,2.45.33.18.82.23.9.6s-.26.58-.48.83a1.58,1.58,0,0,0,.48,2.35c.19.09.43.17.5.37a.76.76,0,0,1-.05.44,2.41,2.41,0,0,0-.07.85.38.38,0,0,0,.1.26.44.44,0,0,0,.25.08c1.15.05,1.7-.36,2.4.64a.82.82,0,0,0,.24.25.65.65,0,0,0,.31.08c.79.06,1.3-.43,2-.52,1-.13,1.21.39,2.09.8C425.37,338.33,426,337.93,426.3,337Z" style="fill:#65B741"/>
      <path d="M425,328.59a3.81,3.81,0,0,0,.13-.82c.1-1.69,1.72-1.42,3.1-1.65,1.07-.18-1.78-2.9.39-3.78a1.9,1.9,0,0,0,1.05-.73,1.24,1.24,0,0,0-.47-1.51,2.94,2.94,0,0,0-1.65-.41c-.35-.43-.07-1.08.28-1.52s.76-.94.63-1.48c-.2-.82-1.34-.85-2.17-.69a5.79,5.79,0,0,1-.44-1.67c-.15-.56-.6-1.15-1.18-1.08s-.87.68-1.41.8-1.15-.4-1.64-.81-1.33-.67-1.66-.13c-.2.33-.08.78-.29,1.1-.36.55-1.22.21-1.75-.18s-1.38-.75-1.75-.21a2.78,2.78,0,0,0-.21.57c-.25.72-1,1.09-1.64,1.55s-1.09,1.39-.58,2c.26.28.71.39.83.75s-.3.84-.66,1.15c-.6.51-.7,2,.09,2.45.33.18.82.23.9.6s-.26.58-.48.84a1.57,1.57,0,0,0,.48,2.34c.19.09.43.17.5.37a.76.76,0,0,1-.05.44,2.23,2.23,0,0,0-.07.85.34.34,0,0,0,.1.27.52.52,0,0,0,.25.07c1.15.05,1.7-.36,2.4.64a.64.64,0,0,0,.24.25.65.65,0,0,0,.31.08c.79.07,1.3-.43,2-.52,1-.12,1.21.39,2.09.8C424.09,329.93,424.76,329.53,425,328.59Z" style="fill:#65B741"/>
      <path d="M416.34,332.77a4.62,4.62,0,0,0,.12-.81c.1-1.7,1.72-1.43,3.1-1.66,1.08-.18-1.77-2.9.4-3.78a1.88,1.88,0,0,0,1-.73,1.22,1.22,0,0,0-.47-1.5,2.85,2.85,0,0,0-1.65-.42c-.35-.43-.06-1.07.28-1.51s.76-.94.63-1.49c-.19-.81-1.34-.84-2.16-.68a6,6,0,0,1-.45-1.68c-.15-.56-.6-1.15-1.17-1.08s-.88.68-1.41.81-1.16-.41-1.64-.82-1.34-.66-1.67-.12c-.2.32-.08.77-.29,1.09-.36.55-1.22.21-1.75-.18s-1.37-.75-1.75-.2a2.07,2.07,0,0,0-.2.56c-.25.73-1,1.09-1.65,1.55s-1.09,1.39-.57,2c.25.28.7.39.82.75s-.29.85-.65,1.15c-.6.51-.71,2,.08,2.46.33.17.82.22.9.59s-.26.59-.48.84a1.58,1.58,0,0,0,.49,2.35c.19.09.42.16.49.36a.68.68,0,0,1-.05.44,2.45,2.45,0,0,0-.07.85.41.41,0,0,0,.1.27.37.37,0,0,0,.25.07c1.15.05,1.7-.35,2.4.64a.86.86,0,0,0,.24.26.67.67,0,0,0,.31.07c.79.07,1.31-.42,2-.51,1-.13,1.21.38,2.09.8C415.41,334.12,416.08,333.72,416.34,332.77Z" style="fill:#65B741"/>
      <path d="M407.56,330.84a4.6,4.6,0,0,0,.12-.82c.1-1.69,1.72-1.42,3.1-1.65,1.08-.18-1.77-2.9.4-3.78a1.88,1.88,0,0,0,1-.73,1.23,1.23,0,0,0-.47-1.51,2.92,2.92,0,0,0-1.65-.41c-.35-.43-.06-1.08.28-1.52s.76-.94.63-1.48c-.19-.82-1.34-.85-2.16-.69a5.81,5.81,0,0,1-.45-1.67c-.15-.56-.6-1.15-1.17-1.08s-.88.68-1.41.8-1.16-.4-1.64-.81-1.34-.67-1.67-.13c-.2.33-.08.78-.29,1.1-.36.55-1.22.21-1.75-.18s-1.37-.75-1.75-.21a2.27,2.27,0,0,0-.2.57c-.25.73-1,1.09-1.65,1.55s-1.09,1.39-.57,2c.25.28.7.39.83.75s-.3.84-.66,1.15c-.6.51-.71,2,.08,2.45.34.18.82.23.9.6s-.26.58-.48.84a1.57,1.57,0,0,0,.49,2.34c.19.09.42.17.49.37a.68.68,0,0,1-.05.44,2.45,2.45,0,0,0-.07.85.3.3,0,0,0,.35.34c1.15.05,1.7-.36,2.4.64a.82.82,0,0,0,.24.25.68.68,0,0,0,.31.08c.79.07,1.31-.42,2-.52,1-.12,1.2.39,2.08.81C406.63,332.19,407.3,331.78,407.56,330.84Z" style="fill:#65B741"/>
      <path d="M407.44,340.23a2.39,2.39,0,0,0,.1-.64c.08-1.34,1.36-1.12,2.44-1.31.85-.14-1.4-2.28.31-3a1.54,1.54,0,0,0,.83-.57,1,1,0,0,0-.38-1.19,2.2,2.2,0,0,0-1.29-.32c-.28-.34-.05-.85.21-1.2s.61-.74.5-1.17c-.15-.64-1.05-.66-1.7-.54a4.77,4.77,0,0,1-.36-1.32c-.11-.44-.46-.9-.92-.85s-.69.54-1.11.64-.91-.32-1.29-.64-1-.53-1.31-.1c-.16.25-.07.61-.23.86-.28.43-1,.16-1.37-.15s-1.09-.58-1.38-.15a1.65,1.65,0,0,0-.16.44c-.2.57-.82.86-1.3,1.22s-.86,1.1-.45,1.54c.2.22.55.31.65.59s-.24.67-.52.91c-.47.4-.56,1.6.07,1.93.26.14.64.18.71.47s-.21.46-.38.66a1.24,1.24,0,0,0,.38,1.85c.15.07.33.13.39.29a.62.62,0,0,1,0,.35,1.83,1.83,0,0,0-.06.66.36.36,0,0,0,.08.21.3.3,0,0,0,.2.06c.9,0,1.34-.28,1.89.51a.58.58,0,0,0,.19.19.52.52,0,0,0,.25.07c.62.05,1-.34,1.59-.41.78-.1.95.3,1.64.63C406.71,341.29,407.24,341,407.44,340.23Z" style="fill:#65B741"/>
      <path d="M402.52,337a3.91,3.91,0,0,0,.13-.82c.1-1.69,1.72-1.43,3.1-1.66,1.07-.18-1.78-2.9.39-3.77a2,2,0,0,0,1.05-.73,1.24,1.24,0,0,0-.47-1.51,2.94,2.94,0,0,0-1.65-.41c-.36-.43-.07-1.08.28-1.52s.76-.94.63-1.48c-.2-.82-1.34-.85-2.17-.69a6.15,6.15,0,0,1-.45-1.67c-.14-.57-.59-1.16-1.17-1.09s-.87.68-1.41.81-1.15-.4-1.64-.81-1.33-.67-1.67-.13c-.2.33-.08.78-.28,1.1-.36.55-1.22.21-1.75-.19s-1.38-.74-1.75-.2a2.3,2.3,0,0,0-.21.57c-.25.72-1,1.08-1.64,1.55s-1.09,1.39-.58,2c.26.28.7.39.83.75s-.3.84-.66,1.15c-.6.51-.7,2,.09,2.45.33.18.82.23.9.6s-.26.58-.48.83a1.58,1.58,0,0,0,.48,2.35c.19.09.43.17.5.37a.76.76,0,0,1-.05.44,2.41,2.41,0,0,0-.08.85.35.35,0,0,0,.11.26.44.44,0,0,0,.25.08c1.14.05,1.7-.36,2.4.64a.78.78,0,0,0,.23.25.72.72,0,0,0,.32.08c.79.06,1.3-.43,2-.52,1-.13,1.21.39,2.09.8C401.59,338.33,402.26,337.93,402.52,337Z" style="fill:#65B741"/>
      <path d="M416.34,322.44a4.62,4.62,0,0,0,.12-.81c.1-1.7,1.72-1.43,3.1-1.66,1.08-.18-1.77-2.9.4-3.78a1.88,1.88,0,0,0,1-.73,1.22,1.22,0,0,0-.47-1.5,2.85,2.85,0,0,0-1.65-.42c-.35-.43-.06-1.07.28-1.51s.76-.94.63-1.49c-.19-.81-1.34-.84-2.16-.68a6,6,0,0,1-.45-1.68c-.15-.56-.6-1.15-1.17-1.08s-.88.68-1.41.8-1.16-.4-1.64-.81-1.34-.66-1.67-.12c-.2.32-.08.77-.29,1.09-.36.55-1.22.21-1.75-.18s-1.37-.75-1.75-.2a2.07,2.07,0,0,0-.2.56c-.25.73-1,1.09-1.65,1.55s-1.09,1.39-.57,2c.25.28.7.39.82.75s-.29.84-.65,1.15c-.6.51-.71,2,.08,2.46.33.17.82.22.9.59s-.26.59-.48.84a1.57,1.57,0,0,0,.49,2.34c.19.1.42.17.49.37a.68.68,0,0,1-.05.44,2.45,2.45,0,0,0-.07.85.41.41,0,0,0,.1.27.37.37,0,0,0,.25.07c1.15.05,1.7-.35,2.4.64a.86.86,0,0,0,.24.26.82.82,0,0,0,.31.07c.79.07,1.31-.42,2-.51,1-.13,1.21.38,2.09.8C415.41,323.79,416.08,323.39,416.34,322.44Z" style="fill:#65B741"/>
      <path d="M427.62,323a4.6,4.6,0,0,0,.12-.82c.1-1.69,1.72-1.42,3.1-1.66,1.07-.18-1.78-2.89.4-3.77a1.88,1.88,0,0,0,1-.73,1.24,1.24,0,0,0-.47-1.51,2.92,2.92,0,0,0-1.65-.41c-.35-.43-.06-1.08.28-1.52s.76-.94.63-1.48c-.2-.82-1.34-.85-2.17-.69a6.13,6.13,0,0,1-.44-1.67c-.15-.56-.6-1.15-1.17-1.08s-.88.68-1.41.8-1.16-.4-1.64-.81-1.34-.67-1.67-.13c-.2.33-.08.78-.29,1.1-.36.55-1.22.21-1.75-.19s-1.37-.74-1.75-.2a2.27,2.27,0,0,0-.2.57c-.25.72-1,1.09-1.65,1.55s-1.09,1.39-.58,2c.26.28.71.39.83.75s-.29.84-.65,1.15c-.6.51-.71,2,.08,2.45.33.18.82.23.9.6s-.26.58-.48.84a1.57,1.57,0,0,0,.48,2.34c.19.09.43.17.5.37a.76.76,0,0,1-.05.44,2.41,2.41,0,0,0-.07.85.43.43,0,0,0,.1.27.52.52,0,0,0,.25.07c1.15.05,1.7-.36,2.4.64a1,1,0,0,0,.24.25.65.65,0,0,0,.31.08c.79.07,1.3-.43,2-.52,1-.12,1.21.39,2.09.8C426.69,324.36,427.36,324,427.62,323Z" style="fill:#65B741"/>
      <path d="M434.47,327.64a4.74,4.74,0,0,0,.12-.82c.1-1.7,1.72-1.43,3.1-1.66,1.08-.18-1.77-2.9.4-3.78a1.83,1.83,0,0,0,1-.73,1.22,1.22,0,0,0-.47-1.5,2.92,2.92,0,0,0-1.65-.41c-.35-.43-.06-1.08.28-1.52s.76-.94.63-1.48c-.19-.82-1.34-.85-2.16-.69a6,6,0,0,1-.45-1.68c-.15-.56-.6-1.15-1.17-1.08s-.88.68-1.41.81-1.16-.4-1.64-.82-1.34-.66-1.67-.12c-.2.32-.08.77-.29,1.09-.36.56-1.22.21-1.75-.18s-1.37-.75-1.75-.2a2,2,0,0,0-.2.57c-.25.72-1,1.08-1.65,1.55s-1.09,1.39-.57,1.95c.25.28.7.4.82.75s-.29.85-.65,1.15c-.6.51-.71,2,.08,2.46.33.17.82.23.9.59s-.26.59-.48.84a1.58,1.58,0,0,0,.49,2.35c.19.09.42.16.49.36a.71.71,0,0,1-.05.45,2.41,2.41,0,0,0-.07.85.4.4,0,0,0,.1.26.37.37,0,0,0,.25.07c1.15.05,1.7-.35,2.4.64a.86.86,0,0,0,.24.26.79.79,0,0,0,.31.08c.79.06,1.31-.43,2-.52,1-.13,1.2.39,2.08.8C433.54,329,434.21,328.58,434.47,327.64Z" style="fill:#65B741"/>
      <path d="M432.39,333.47s-2.87,4-3.85,5.34-5.93,9.28-6.6,14.58c-.07.56-.15,1.05-.21,1.47,2.12,14,1.79,39.69,1.71,44.08h-6.73c-.06-4.95-.63-50.24-.84-51.62s-3-7-7.39-9.32-8.1-9.86-8.1-9.86h1.38a24.81,24.81,0,0,0,6.23,7.21,14.4,14.4,0,0,0,1.64,1,23.26,23.26,0,0,1,1.46-8.18l.74.69a19.48,19.48,0,0,0-.57,8.3,15.22,15.22,0,0,1,3.78,2.53c3.79-4.93,5.93-16.2,5.93-16.2l1,.53a57.77,57.77,0,0,1-1.26,6.91,115,115,0,0,1-3.77,10.91,25.29,25.29,0,0,1,2.86,5.38,2.27,2.27,0,0,1,.37-.44c2.47-2.23,7.11-12.79,7.11-12.79,1.13-2.45-.59-8.89-.59-8.89H428l.58,5.63,3.26-3.55.59.49-3.46,4.45-1.78,5.63,4.65-5.14Z" style="fill:#263238"/>
      <path d="M425.6,398.94H403.45a2.08,2.08,0,0,1,1.37-2.46c1.08-.22,2.16-2.12,2.21-3.32s2-4.93,5-2.63,2.1.34,4.29-.31,3.56,1.21,2.6,2.6a2.7,2.7,0,0,1,3.1,1.5,3.46,3.46,0,0,1,0,3.32S424.8,397.56,425.6,398.94Z" style="fill:#65B741"/>
      <path d="M369.37,399.52c.1-.79.06-1.94-.92-2.26a3.11,3.11,0,0,1-2.37-3c.05-1.34-1.56-2.64-2.76-1.39s-1-1-2.65-1.5-3,.77-2.52,2-1.14,1.94-3,.93-4,.83-3.58,2.27.08,1.6-1.12,1.12a2.19,2.19,0,0,0-2.74,1.88Z" style="fill:#65B741"/>
      <path d="M346.89,351.28a3.29,3.29,0,0,1-.09-.66c-.08-1.35-1.38-1.13-2.47-1.32-.86-.14,1.41-2.31-.32-3a1.47,1.47,0,0,1-.83-.58,1,1,0,0,1,.37-1.2,2.4,2.4,0,0,1,1.32-.33c.28-.34.05-.86-.22-1.21s-.61-.75-.51-1.18c.16-.65,1.07-.68,1.73-.55a4.58,4.58,0,0,0,.35-1.33c.12-.45.48-.92.94-.87s.7.55,1.12.65.92-.32,1.31-.65,1.06-.53,1.33-.1c.16.26.06.62.23.87.29.44,1,.17,1.39-.14s1.1-.6,1.4-.17a1.79,1.79,0,0,1,.16.46c.2.57.82.86,1.31,1.23s.87,1.11.46,1.56c-.2.22-.56.32-.66.6s.24.67.52.92c.48.4.57,1.62-.06,2-.27.14-.66.19-.72.48s.2.46.38.67a1.26,1.26,0,0,1-.38,1.87c-.16.07-.34.13-.4.29a.62.62,0,0,0,0,.35,1.94,1.94,0,0,1,.06.68.32.32,0,0,1-.08.21.36.36,0,0,1-.2.06c-.92,0-1.36-.29-1.91.51a.9.9,0,0,1-.19.2.76.76,0,0,1-.26.06c-.62,0-1-.34-1.61-.41-.79-.1-1,.31-1.66.64C347.64,352.35,347.1,352,346.89,351.28Z" style="fill:#65B741"/>
      <path d="M357.41,350.14a2.53,2.53,0,0,1-.1-.65c-.08-1.35-1.37-1.14-2.47-1.32-.86-.15,1.41-2.31-.32-3a1.49,1.49,0,0,1-.83-.59,1,1,0,0,1,.37-1.2,2.32,2.32,0,0,1,1.32-.32c.28-.35.05-.86-.22-1.21s-.61-.75-.51-1.19c.16-.65,1.07-.67,1.73-.54a5,5,0,0,0,.36-1.34c.11-.45.47-.92.93-.86s.7.54,1.12.64.92-.32,1.31-.65,1.06-.53,1.33-.1c.16.26.06.62.23.88.29.44,1,.16,1.39-.15s1.1-.6,1.4-.16a1.72,1.72,0,0,1,.16.45c.2.58.82.87,1.31,1.24s.87,1.1.46,1.56c-.2.22-.56.31-.66.59s.24.68.52.92c.48.41.57,1.62-.06,2-.27.14-.66.18-.72.47s.2.47.38.67a1.25,1.25,0,0,1-.38,1.87c-.15.07-.34.13-.4.29a.61.61,0,0,0,0,.35,1.94,1.94,0,0,1,.06.68.3.3,0,0,1-.08.21.3.3,0,0,1-.2.06c-.92,0-1.36-.28-1.91.51a.61.61,0,0,1-.19.2.59.59,0,0,1-.26.07c-.62,0-1-.34-1.61-.42-.79-.1-1,.31-1.66.64C358.15,351.21,357.61,350.89,357.41,350.14Z" style="fill:#65B741"/>
      <path d="M358.42,343.45a3.16,3.16,0,0,1-.1-.66c-.08-1.35-1.37-1.13-2.47-1.32-.86-.14,1.41-2.31-.32-3a1.47,1.47,0,0,1-.83-.58,1,1,0,0,1,.38-1.2,2.35,2.35,0,0,1,1.31-.33c.28-.34.05-.86-.22-1.21s-.61-.75-.51-1.18c.16-.65,1.07-.67,1.73-.55a4.93,4.93,0,0,0,.36-1.33c.12-.45.47-.92.93-.86s.7.54,1.12.64.93-.32,1.31-.65,1.07-.53,1.33-.1c.16.26.07.62.23.87.29.44,1,.17,1.39-.14s1.1-.6,1.4-.17a1.79,1.79,0,0,1,.16.46c.2.57.83.86,1.31,1.23s.88,1.11.46,1.56c-.2.23-.56.32-.66.6s.24.67.53.92c.48.4.56,1.62-.07,1.95-.27.14-.65.19-.72.48s.21.46.38.67a1.25,1.25,0,0,1-.38,1.87c-.15.07-.34.13-.39.29a.61.61,0,0,0,0,.35,1.94,1.94,0,0,1,.06.68.28.28,0,0,1-.08.21.34.34,0,0,1-.2.06c-.91,0-1.35-.29-1.91.51a.72.72,0,0,1-.19.2.57.57,0,0,1-.25.06c-.63.05-1-.34-1.61-.41-.8-.1-1,.31-1.67.64C359.16,344.52,358.63,344.2,358.42,343.45Z" style="fill:#65B741"/>
      <path d="M365.34,346.78a3.87,3.87,0,0,1-.1-.65c-.08-1.35-1.37-1.14-2.47-1.32-.85-.15,1.42-2.31-.31-3a1.55,1.55,0,0,1-.84-.59A1,1,0,0,1,362,340a2.28,2.28,0,0,1,1.31-.32c.29-.35.06-.86-.22-1.21s-.6-.75-.5-1.18c.16-.66,1.07-.68,1.73-.55a5,5,0,0,0,.35-1.34c.12-.45.48-.92.94-.86s.69.54,1.12.64.92-.32,1.31-.65,1.06-.53,1.33-.1c.16.26.06.62.23.88.28.44,1,.16,1.39-.15s1.1-.59,1.39-.16a2.2,2.2,0,0,1,.17.45c.2.58.82.87,1.31,1.24s.87,1.1.46,1.56c-.2.22-.56.31-.66.59s.23.68.52.92c.48.41.57,1.62-.07,2-.26.14-.65.18-.72.47s.21.47.39.67a1.26,1.26,0,0,1-.39,1.87c-.15.07-.33.13-.39.29a.54.54,0,0,0,0,.35,1.94,1.94,0,0,1,.06.68.31.31,0,0,1-.09.21.28.28,0,0,1-.2.06c-.91,0-1.35-.28-1.91.51a.5.5,0,0,1-.44.27c-.63.05-1-.34-1.61-.42-.79-.1-1,.31-1.66.64C366.08,347.85,365.55,347.53,365.34,346.78Z" style="fill:#65B741"/>
      <path d="M372.34,345.24a3.87,3.87,0,0,1-.1-.65c-.08-1.35-1.37-1.14-2.47-1.32-.86-.15,1.42-2.31-.31-3a1.51,1.51,0,0,1-.84-.59,1,1,0,0,1,.38-1.2,2.26,2.26,0,0,1,1.31-.32c.28-.35.05-.86-.22-1.21s-.61-.75-.5-1.19c.15-.65,1.06-.67,1.72-.54a4.66,4.66,0,0,0,.36-1.34c.12-.45.47-.92.93-.86s.7.54,1.13.64.92-.32,1.3-.65,1.07-.53,1.33-.1c.16.26.07.62.23.88.29.44,1,.16,1.4-.15s1.09-.59,1.39-.16a2.2,2.2,0,0,1,.17.45c.2.58.82.87,1.31,1.24s.87,1.1.46,1.56c-.21.22-.56.31-.66.59s.23.68.52.92c.48.41.56,1.62-.07,2-.26.14-.65.18-.72.47s.21.47.39.67a1.26,1.26,0,0,1-.39,1.87c-.15.07-.34.13-.39.29a.6.6,0,0,0,0,.35,1.56,1.56,0,0,1,.06.68.26.26,0,0,1-.08.21.28.28,0,0,1-.2.06c-.91,0-1.35-.28-1.91.51a.5.5,0,0,1-.44.27c-.63.05-1-.34-1.61-.42-.8-.1-1,.31-1.67.64C373.08,346.31,372.55,346,372.34,345.24Z" style="fill:#65B741"/>
      <path d="M372.43,352.73a3.79,3.79,0,0,1-.08-.52c-.06-1.06-1.08-.89-1.94-1-.68-.11,1.11-1.82-.25-2.37a1.21,1.21,0,0,1-.66-.46.78.78,0,0,1,.3-.94,1.82,1.82,0,0,1,1-.26c.23-.27.05-.68-.17-.95s-.48-.59-.4-.93c.13-.52.84-.53,1.36-.44a3.61,3.61,0,0,0,.28-1.05c.1-.35.38-.72.74-.67s.55.42.88.5.73-.25,1-.51.84-.42,1.05-.08,0,.49.18.69c.23.35.76.13,1.1-.12s.86-.46,1.1-.12a1.31,1.31,0,0,1,.12.35c.16.46.65.68,1,1s.68.87.36,1.22c-.16.18-.44.25-.52.47s.19.53.41.73c.38.32.45,1.28-.05,1.54-.21.11-.52.14-.57.37s.17.37.3.53a1,1,0,0,1-.3,1.47c-.12.06-.26.1-.31.23a.45.45,0,0,0,0,.28,1.57,1.57,0,0,1,.05.53.26.26,0,0,1-.07.17.27.27,0,0,1-.16,0c-.71,0-1.06-.22-1.5.4a.46.46,0,0,1-.15.16.35.35,0,0,1-.2.05c-.49,0-.81-.26-1.27-.32-.62-.08-.75.24-1.31.5C373,353.57,372.59,353.32,372.43,352.73Z" style="fill:#65B741"/>
      <path d="M376.35,350.14a3.87,3.87,0,0,1-.1-.65c-.08-1.35-1.37-1.14-2.47-1.32-.85-.15,1.42-2.31-.31-3a1.55,1.55,0,0,1-.84-.59,1,1,0,0,1,.38-1.2,2.28,2.28,0,0,1,1.31-.32c.29-.35.06-.86-.22-1.21s-.6-.75-.5-1.19c.16-.65,1.07-.67,1.73-.54a5,5,0,0,0,.35-1.34c.12-.45.48-.92.94-.86s.69.54,1.12.64.92-.32,1.31-.65,1.06-.53,1.33-.1c.16.26.06.62.23.88.28.44,1,.16,1.39-.15s1.1-.6,1.39-.16a2.2,2.2,0,0,1,.17.45c.2.58.82.87,1.31,1.24s.87,1.1.46,1.56c-.2.22-.56.31-.66.59s.23.68.52.92c.48.41.57,1.62-.07,2-.26.14-.65.18-.72.47s.21.47.39.67a1.26,1.26,0,0,1-.39,1.87c-.15.07-.33.13-.39.29a.54.54,0,0,0,0,.35,1.94,1.94,0,0,1,.06.68.31.31,0,0,1-.09.21.28.28,0,0,1-.2.06c-.91,0-1.35-.28-1.91.51a.5.5,0,0,1-.44.27c-.63,0-1-.34-1.61-.42-.79-.1-1,.31-1.66.64C377.09,351.21,376.56,350.89,376.35,350.14Z" style="fill:#65B741"/>
      <path d="M365.34,338.55a4,4,0,0,1-.1-.66c-.08-1.35-1.37-1.13-2.47-1.32-.85-.14,1.42-2.31-.31-3a1.53,1.53,0,0,1-.84-.58,1,1,0,0,1,.38-1.2,2.37,2.37,0,0,1,1.31-.33c.29-.34.06-.86-.22-1.21s-.6-.75-.5-1.18c.16-.65,1.07-.67,1.73-.55a4.82,4.82,0,0,0,.35-1.33c.12-.45.48-.92.94-.86s.69.54,1.12.64.92-.32,1.31-.65,1.06-.53,1.33-.1c.16.26.06.62.23.87.28.44,1,.17,1.39-.14s1.1-.6,1.39-.17a2.29,2.29,0,0,1,.17.46c.2.57.82.86,1.31,1.23s.87,1.11.46,1.56c-.2.23-.56.32-.66.6s.23.67.52.92c.48.4.57,1.62-.07,1.95-.26.14-.65.19-.72.48s.21.46.39.67a1.26,1.26,0,0,1-.39,1.87c-.15.07-.33.13-.39.29a.54.54,0,0,0,0,.35,1.94,1.94,0,0,1,.06.68.31.31,0,0,1-.09.21.34.34,0,0,1-.2.06c-.91,0-1.35-.29-1.91.51a.72.72,0,0,1-.19.2.51.51,0,0,1-.25.06c-.63.05-1-.34-1.61-.41-.79-.1-1,.31-1.66.64C366.08,339.62,365.55,339.3,365.34,338.55Z" style="fill:#65B741"/>
      <path d="M356.35,339a4,4,0,0,1-.1-.66c-.08-1.35-1.37-1.13-2.47-1.32-.85-.14,1.42-2.31-.31-3a1.53,1.53,0,0,1-.84-.58,1,1,0,0,1,.38-1.2,2.37,2.37,0,0,1,1.31-.33c.29-.34.06-.86-.22-1.21s-.6-.75-.5-1.18c.16-.65,1.07-.67,1.73-.55a4.92,4.92,0,0,0,.35-1.33c.12-.45.48-.92.94-.86s.69.54,1.12.64.92-.32,1.31-.65,1.06-.53,1.33-.1c.16.26.06.62.23.87.28.44,1,.17,1.39-.14s1.1-.6,1.39-.17a2.29,2.29,0,0,1,.17.46c.2.57.82.86,1.31,1.23s.87,1.11.46,1.56c-.2.22-.56.32-.66.6s.23.67.52.92c.48.4.57,1.62-.07,1.95-.26.14-.65.19-.72.48s.21.46.39.67a1.26,1.26,0,0,1-.39,1.87c-.15.07-.33.13-.39.29a.54.54,0,0,0,0,.35,1.94,1.94,0,0,1,.06.68.33.33,0,0,1-.09.21.34.34,0,0,1-.2.06c-.91,0-1.35-.29-1.91.51a.72.72,0,0,1-.19.2.51.51,0,0,1-.25.06c-.63.05-1-.34-1.61-.41-.79-.1-1,.31-1.66.64C357.09,340.08,356.56,339.76,356.35,339Z" style="fill:#65B741"/>
      <path d="M350.89,342.68a3.87,3.87,0,0,1-.1-.65c-.08-1.35-1.37-1.14-2.47-1.32-.85-.14,1.42-2.31-.31-3a1.58,1.58,0,0,1-.84-.58,1,1,0,0,1,.38-1.2,2.35,2.35,0,0,1,1.31-.33c.29-.34.06-.86-.22-1.21s-.6-.75-.5-1.18c.16-.65,1.07-.68,1.73-.55a4.92,4.92,0,0,0,.35-1.33c.12-.45.48-.92.94-.87s.69.55,1.12.65.92-.32,1.31-.65,1.06-.53,1.33-.1c.16.26.06.62.23.87.28.44,1,.17,1.39-.14s1.1-.6,1.39-.17a2.29,2.29,0,0,1,.17.46c.2.57.82.86,1.31,1.23s.87,1.11.46,1.56c-.21.22-.56.31-.66.6s.23.67.52.92c.48.4.57,1.62-.07,1.95-.26.14-.65.18-.72.48s.21.46.39.66a1.25,1.25,0,0,1-.39,1.87c-.15.08-.33.14-.39.3a.54.54,0,0,0,0,.35,1.94,1.94,0,0,1,.06.68.33.33,0,0,1-.09.21.43.43,0,0,1-.2.06c-.91,0-1.35-.29-1.91.51a.72.72,0,0,1-.19.2.66.66,0,0,1-.25.06c-.63.05-1-.34-1.61-.41-.79-.1-1,.31-1.66.64C351.63,343.76,351.1,343.44,350.89,342.68Z" style="fill:#65B741"/>
      <path d="M352.55,347.33s2.28,3.23,3.07,4.26,4.72,7.4,5.26,11.62c.06.45.11.84.17,1.17-1.7,11.18-1.43,31.63-1.37,35.14H365c0-3.95.51-40,.68-41.15a13.75,13.75,0,0,1,5.88-7.43c3.47-1.82,6.46-7.86,6.46-7.86H377a19.85,19.85,0,0,1-5,5.75,11,11,0,0,1-1.31.78,18.71,18.71,0,0,0-1.16-6.53l-.6.55a15.49,15.49,0,0,1,.46,6.62,12.15,12.15,0,0,0-3,2c-3-3.93-4.72-12.92-4.72-12.92l-.77.42a45.27,45.27,0,0,0,1,5.52,89.27,89.27,0,0,0,3,8.69,20.84,20.84,0,0,0-2.29,4.29,1.64,1.64,0,0,0-.29-.35c-2-1.78-5.67-10.19-5.67-10.19-.89-2,.47-7.09.47-7.09h-1l-.46,4.49-2.6-2.84-.47.4,2.75,3.54,1.42,4.49-3.7-4.09Z" style="fill:#263238"/>
      <path d="M358,399.52h17.66a1.68,1.68,0,0,0-1.1-2c-.86-.17-1.72-1.68-1.76-2.64s-1.59-3.93-4-2.1-1.67.27-3.41-.24-2.84,1-2.08,2.07a2.13,2.13,0,0,0-2.46,1.2,2.74,2.74,0,0,0,0,2.64S358.6,398.42,358,399.52Z" style="fill:#65B741"/>
      <path d="M93.72,401.93c.12-1,.07-2.42-1.15-2.83a3.91,3.91,0,0,1-3-3.78c.06-1.68-2-3.31-3.46-1.74s-1.31-1.2-3.32-1.88-3.72,1-3.17,2.46-1.43,2.43-3.81,1.16-5,1-4.49,2.85.09,2-1.41,1.41a2.76,2.76,0,0,0-3.44,2.35Z" style="fill:#65B741"/>
      <path d="M104.27,341.41a3.91,3.91,0,0,0,.13-.82c.1-1.7,1.72-1.43,3.09-1.66,1.08-.18-1.77-2.9.4-3.78a1.89,1.89,0,0,0,1-.73,1.23,1.23,0,0,0-.47-1.5,2.94,2.94,0,0,0-1.65-.41c-.36-.43-.07-1.08.27-1.52s.77-.94.64-1.48c-.2-.82-1.34-.85-2.17-.69a6.22,6.22,0,0,1-.45-1.68c-.14-.56-.59-1.15-1.17-1.08s-.87.68-1.41.81-1.15-.4-1.64-.81-1.33-.67-1.67-.13c-.2.32-.08.77-.28,1.09-.37.56-1.22.21-1.75-.18s-1.38-.75-1.75-.2a2,2,0,0,0-.21.57c-.25.72-1,1.08-1.64,1.55s-1.1,1.39-.58,1.95c.26.28.7.4.83.75s-.3.85-.66,1.15c-.6.51-.71,2,.09,2.46.33.17.82.23.9.59s-.26.59-.48.84a1.58,1.58,0,0,0,.48,2.35c.19.09.42.16.5.36a.79.79,0,0,1,0,.45,2.41,2.41,0,0,0-.08.85.36.36,0,0,0,.11.26.35.35,0,0,0,.25.07c1.14.05,1.7-.35,2.39.64a.86.86,0,0,0,.24.26.89.89,0,0,0,.32.08c.79.06,1.3-.43,2-.52,1-.13,1.21.39,2.09.8C103.34,342.75,104,342.35,104.27,341.41Z" style="fill:#65B741"/>
      <path d="M91.09,340a4.6,4.6,0,0,0,.12-.82c.1-1.69,1.72-1.42,3.1-1.65,1.07-.18-1.78-2.9.39-3.78a1.9,1.9,0,0,0,1-.73,1.24,1.24,0,0,0-.47-1.51,2.92,2.92,0,0,0-1.65-.41c-.35-.43-.07-1.08.28-1.52s.76-.94.63-1.48c-.2-.82-1.34-.85-2.17-.69a5.79,5.79,0,0,1-.44-1.67c-.15-.56-.6-1.15-1.18-1.08s-.87.68-1.4.8-1.16-.4-1.65-.81S86.37,324,86,324.5c-.2.33-.08.78-.29,1.1-.36.55-1.22.21-1.75-.18s-1.38-.75-1.75-.21a2.27,2.27,0,0,0-.2.57c-.26.73-1,1.09-1.65,1.55s-1.09,1.39-.58,2c.26.28.71.39.83.75s-.29.84-.65,1.15c-.6.51-.71,2,.08,2.45.33.18.82.23.9.6s-.26.58-.48.84a1.57,1.57,0,0,0,.48,2.34c.19.09.43.17.5.37a.76.76,0,0,1,0,.44,2.45,2.45,0,0,0-.07.85.43.43,0,0,0,.1.27.52.52,0,0,0,.25.07c1.15.05,1.7-.36,2.4.64a.64.64,0,0,0,.24.25.65.65,0,0,0,.31.08c.79.07,1.3-.42,2-.52,1-.12,1.21.39,2.09.8C90.15,341.32,90.83,340.92,91.09,340Z" style="fill:#65B741"/>
      <path d="M89.81,331.58a3.81,3.81,0,0,0,.13-.81c.1-1.7,1.72-1.43,3.1-1.66,1.07-.18-1.78-2.9.39-3.78a1.9,1.9,0,0,0,1-.73,1.23,1.23,0,0,0-.47-1.5,2.87,2.87,0,0,0-1.65-.42c-.35-.43-.07-1.08.28-1.51s.76-.94.63-1.49c-.2-.82-1.34-.84-2.17-.69a6.15,6.15,0,0,1-.45-1.67c-.14-.56-.59-1.15-1.17-1.08s-.87.68-1.41.8-1.15-.4-1.64-.81-1.33-.66-1.66-.12c-.2.32-.09.77-.29,1.09-.36.55-1.22.21-1.75-.18s-1.38-.75-1.75-.21a2.78,2.78,0,0,0-.21.57c-.25.73-1,1.09-1.64,1.55s-1.09,1.39-.58,2c.26.28.71.39.83.75s-.3.84-.66,1.15c-.6.51-.7,2,.09,2.45.33.18.82.23.9.6s-.26.58-.48.84a1.57,1.57,0,0,0,.48,2.34c.19.1.43.17.5.37a.75.75,0,0,1,0,.44,2.23,2.23,0,0,0-.07.85.34.34,0,0,0,.1.27.37.37,0,0,0,.25.07c1.15.05,1.7-.35,2.4.64a.62.62,0,0,0,.23.25.72.72,0,0,0,.32.08c.79.07,1.3-.42,2-.51,1-.13,1.21.38,2.09.8C88.88,332.93,89.55,332.53,89.81,331.58Z" style="fill:#65B741"/>
      <path d="M81.13,335.77a4.74,4.74,0,0,0,.12-.82c.1-1.7,1.72-1.43,3.1-1.66,1.08-.18-1.77-2.9.4-3.78a1.83,1.83,0,0,0,1-.73,1.22,1.22,0,0,0-.47-1.5,2.92,2.92,0,0,0-1.65-.41c-.35-.43-.06-1.08.28-1.52s.76-.94.63-1.48c-.19-.82-1.34-.85-2.16-.69A5.87,5.87,0,0,1,82,321.5c-.15-.56-.6-1.15-1.17-1.08s-.88.68-1.41.81-1.16-.4-1.64-.81-1.34-.67-1.67-.13c-.2.32-.08.77-.29,1.09-.36.56-1.22.21-1.75-.18s-1.37-.75-1.75-.2a2,2,0,0,0-.2.57c-.25.72-1,1.08-1.65,1.55s-1.09,1.39-.57,1.95c.25.28.7.4.82.75s-.29.85-.65,1.15c-.6.51-.71,2,.08,2.46.33.17.82.23.9.59s-.26.59-.48.84a1.57,1.57,0,0,0,.49,2.35c.19.09.42.16.49.36a.71.71,0,0,1,0,.45,2.38,2.38,0,0,0-.07.84.41.41,0,0,0,.1.27.37.37,0,0,0,.25.07c1.15.05,1.7-.35,2.4.64a.86.86,0,0,0,.24.26.79.79,0,0,0,.31.08c.79.06,1.31-.43,2-.52,1-.13,1.21.39,2.09.8C80.2,337.11,80.87,336.71,81.13,335.77Z" style="fill:#65B741"/>
      <path d="M72.35,333.83a4.62,4.62,0,0,0,.12-.81c.1-1.7,1.72-1.43,3.1-1.66,1.08-.18-1.77-2.9.4-3.78a1.88,1.88,0,0,0,1-.73,1.22,1.22,0,0,0-.47-1.5,2.85,2.85,0,0,0-1.65-.42c-.35-.43-.06-1.07.28-1.51s.76-.94.63-1.49c-.19-.81-1.34-.84-2.16-.68a6,6,0,0,1-.45-1.68c-.15-.56-.6-1.15-1.17-1.08s-.88.68-1.41.8-1.16-.4-1.64-.81-1.34-.66-1.67-.12c-.2.32-.08.77-.29,1.09-.36.55-1.22.21-1.75-.18s-1.37-.75-1.75-.2a2.07,2.07,0,0,0-.2.56c-.25.73-1,1.09-1.65,1.55s-1.09,1.39-.57,2c.25.28.7.39.82.75s-.29.85-.65,1.15c-.6.51-.71,2,.08,2.46.33.17.82.22.9.59s-.26.59-.48.84a1.56,1.56,0,0,0,.49,2.34c.19.1.42.17.49.37a.68.68,0,0,1-.05.44,2.45,2.45,0,0,0-.07.85.41.41,0,0,0,.1.27.37.37,0,0,0,.25.07c1.15.05,1.7-.35,2.4.64a.86.86,0,0,0,.24.26.64.64,0,0,0,.31.07c.79.07,1.31-.42,2-.51,1-.13,1.21.38,2.09.8C71.42,335.18,72.09,334.78,72.35,333.83Z" style="fill:#65B741"/>
      <path d="M72.23,343.23a3.06,3.06,0,0,0,.1-.65c.08-1.33,1.35-1.12,2.44-1.3.85-.14-1.4-2.29.31-3a1.54,1.54,0,0,0,.83-.57,1,1,0,0,0-.38-1.19,2.3,2.3,0,0,0-1.29-.32c-.28-.34-.06-.85.21-1.2s.6-.74.5-1.16c-.15-.65-1-.67-1.7-.55a4.79,4.79,0,0,1-.36-1.31c-.11-.45-.46-.91-.92-.86s-.69.54-1.11.64-.91-.32-1.29-.64-1-.53-1.31-.1c-.16.25-.07.61-.23.86-.28.44-1,.17-1.38-.14s-1.08-.59-1.37-.16a2.11,2.11,0,0,0-.17.44c-.19.57-.81.86-1.29,1.23s-.86,1.09-.45,1.54c.2.22.55.31.65.59s-.24.66-.52.9c-.47.4-.56,1.61.07,1.93.26.14.64.19.71.47s-.21.46-.38.66a1.24,1.24,0,0,0,.38,1.85c.15.07.33.13.39.29a.62.62,0,0,1,0,.35,1.87,1.87,0,0,0-.06.67.39.39,0,0,0,.08.21.35.35,0,0,0,.2,0c.9,0,1.34-.28,1.89.51a.72.72,0,0,0,.19.2.65.65,0,0,0,.24.06c.62.05,1-.34,1.6-.41.78-.1,1,.31,1.64.63C71.5,344.28,72,344,72.23,343.23Z" style="fill:#65B741"/>
      <path d="M67.31,340a3.81,3.81,0,0,0,.13-.82c.1-1.69,1.72-1.42,3.1-1.65,1.07-.18-1.78-2.9.39-3.78a1.94,1.94,0,0,0,1-.73,1.24,1.24,0,0,0-.47-1.51,2.94,2.94,0,0,0-1.65-.41c-.36-.43-.07-1.08.28-1.52s.76-.94.63-1.48c-.2-.82-1.34-.85-2.17-.69a6.15,6.15,0,0,1-.45-1.67c-.14-.56-.59-1.15-1.17-1.08s-.87.68-1.41.8-1.15-.4-1.64-.81-1.33-.67-1.67-.13c-.2.33-.08.78-.28,1.1-.36.55-1.22.21-1.75-.18s-1.38-.75-1.75-.21a2.3,2.3,0,0,0-.21.57c-.25.73-1,1.09-1.64,1.55s-1.1,1.39-.58,2c.26.28.7.39.83.75s-.3.84-.66,1.15c-.6.51-.71,2,.09,2.45.33.18.82.23.9.6s-.26.58-.48.84a1.57,1.57,0,0,0,.48,2.34c.19.09.43.17.5.37a.76.76,0,0,1-.05.44,2.46,2.46,0,0,0-.08.85.39.39,0,0,0,.11.27.52.52,0,0,0,.25.07c1.14.05,1.7-.36,2.4.64a.69.69,0,0,0,.23.25.72.72,0,0,0,.32.08c.79.07,1.3-.42,2-.52,1-.12,1.21.39,2.09.8C66.38,341.32,67.05,340.92,67.31,340Z" style="fill:#65B741"/>
      <path d="M81.13,325.44a4.74,4.74,0,0,0,.12-.82c.1-1.7,1.72-1.43,3.1-1.66,1.08-.18-1.77-2.9.4-3.78a1.83,1.83,0,0,0,1-.73,1.22,1.22,0,0,0-.47-1.5,2.92,2.92,0,0,0-1.65-.41c-.35-.44-.06-1.08.28-1.52s.76-.94.63-1.48c-.19-.82-1.34-.85-2.16-.69a6,6,0,0,1-.45-1.68c-.15-.56-.6-1.15-1.17-1.08s-.88.68-1.41.81-1.16-.4-1.64-.82-1.34-.66-1.67-.12c-.2.32-.08.77-.29,1.09-.36.55-1.22.21-1.75-.18s-1.37-.75-1.75-.2a2.07,2.07,0,0,0-.2.56c-.25.73-1,1.09-1.65,1.56s-1.09,1.38-.57,1.95c.25.28.7.4.82.75s-.29.85-.65,1.15c-.6.51-.71,2,.08,2.46.33.17.82.23.9.59s-.26.59-.48.84a1.57,1.57,0,0,0,.49,2.35c.19.09.42.16.49.36a.68.68,0,0,1,0,.44,2.45,2.45,0,0,0-.07.85.41.41,0,0,0,.1.27.37.37,0,0,0,.25.07c1.15.05,1.7-.35,2.4.64a.86.86,0,0,0,.24.26.79.79,0,0,0,.31.08c.79.06,1.31-.43,2-.52,1-.13,1.21.39,2.09.8C80.2,326.78,80.87,326.38,81.13,325.44Z" style="fill:#65B741"/>
      <path d="M92.41,326a4.6,4.6,0,0,0,.12-.82c.1-1.69,1.72-1.42,3.1-1.65,1.07-.18-1.78-2.9.39-3.78a1.87,1.87,0,0,0,1-.73,1.23,1.23,0,0,0-.47-1.5,2.85,2.85,0,0,0-1.65-.42c-.35-.43-.06-1.08.28-1.52s.76-.94.63-1.48c-.2-.82-1.34-.84-2.17-.69a5.79,5.79,0,0,1-.44-1.67c-.15-.56-.6-1.15-1.18-1.08s-.87.68-1.4.8-1.16-.4-1.64-.81-1.34-.67-1.67-.12c-.2.32-.08.77-.29,1.09-.36.55-1.22.21-1.75-.18s-1.37-.75-1.75-.21a2.27,2.27,0,0,0-.2.57c-.26.73-1,1.09-1.65,1.55s-1.09,1.39-.58,2c.26.28.71.39.83.75s-.29.84-.65,1.15c-.6.51-.71,2,.08,2.45.33.18.82.23.9.6s-.26.58-.48.84a1.57,1.57,0,0,0,.48,2.34c.19.09.43.17.5.37a.75.75,0,0,1,0,.44,2.45,2.45,0,0,0-.07.85.3.3,0,0,0,.35.34c1.15.05,1.7-.36,2.4.64a.72.72,0,0,0,.24.25.65.65,0,0,0,.31.08c.79.07,1.3-.42,2-.52,1-.12,1.21.39,2.09.81C91.48,327.36,92.15,327,92.41,326Z" style="fill:#65B741"/>
      <path d="M99.26,330.63a4.74,4.74,0,0,0,.12-.82c.1-1.7,1.72-1.43,3.1-1.66,1.08-.18-1.78-2.9.4-3.77a1.93,1.93,0,0,0,1-.73,1.23,1.23,0,0,0-.47-1.51,2.92,2.92,0,0,0-1.65-.41c-.35-.43-.06-1.08.28-1.52s.76-.94.63-1.48c-.19-.82-1.34-.85-2.16-.69a5.81,5.81,0,0,1-.45-1.67c-.15-.57-.6-1.16-1.17-1.09s-.88.68-1.41.81-1.16-.4-1.64-.81-1.34-.67-1.67-.13c-.2.32-.08.78-.29,1.09-.36.56-1.22.21-1.75-.18s-1.37-.74-1.75-.2a2.27,2.27,0,0,0-.2.57c-.25.72-1,1.08-1.65,1.55s-1.09,1.39-.57,1.95c.25.28.7.4.82.75s-.29.85-.65,1.16c-.6.51-.71,2,.08,2.45.33.17.82.23.9.6s-.26.58-.48.83a1.58,1.58,0,0,0,.48,2.35c.2.09.43.17.5.36a.71.71,0,0,1-.05.45,2.41,2.41,0,0,0-.07.85.4.4,0,0,0,.1.26.37.37,0,0,0,.25.07c1.15.06,1.7-.35,2.4.65a1,1,0,0,0,.24.25.79.79,0,0,0,.31.08c.79.06,1.31-.43,2-.52,1-.13,1.21.39,2.09.8C98.33,332,99,331.57,99.26,330.63Z" style="fill:#65B741"/>
      <path d="M97.18,336.46s-2.87,4.05-3.85,5.34-5.93,9.28-6.6,14.58l-.21,1.47c2.12,14,1.79,39.69,1.71,44.08H81.5c-.06-4.95-.63-50.23-.84-51.62s-3-7-7.39-9.32-8.1-9.86-8.1-9.86h1.38a24.81,24.81,0,0,0,6.23,7.21,14.4,14.4,0,0,0,1.64,1,23.26,23.26,0,0,1,1.46-8.18l.74.69a19.53,19.53,0,0,0-.57,8.31,14.89,14.89,0,0,1,3.78,2.52c3.79-4.93,5.93-16.2,5.93-16.2l1,.53a57.77,57.77,0,0,1-1.26,6.91A115,115,0,0,1,81.7,344.8a25.54,25.54,0,0,1,2.86,5.38,2.61,2.61,0,0,1,.37-.44C87.4,347.51,92,337,92,337c1.13-2.46-.59-8.9-.59-8.9h1.3l.58,5.64,3.26-3.56.59.49-3.46,4.45-1.78,5.63,4.65-5.14Z" style="fill:#263238"/>
      <path d="M79.41,401.93h22.15a2.09,2.09,0,0,0-1.38-2.46c-1.07-.22-2.16-2.11-2.21-3.32s-2-4.92-5-2.63-2.1.34-4.29-.31-3.56,1.21-2.6,2.6a2.7,2.7,0,0,0-3.1,1.5,3.46,3.46,0,0,0,0,3.32S80.2,400.55,79.41,401.93Z" style="fill:#65B741"/>
    </g>
    <rect x="319.178" y="148.506" width="25.922" height="14.572" style="fill:#263238"/>
    <rect x="319.178" y="148.506" width="25.922" height="14.572" style="fill:#fff;isolation:isolate;opacity:0.4"/>
    <rect x="330.843" y="148.506" width="14.258" height="14.572" style="fill:#fff;isolation:isolate;opacity:0.4"/>
    <rect x="291.613" y="148.506" width="25.922" height="14.572" style="fill:#263238"/>
    <rect x="291.613" y="148.506" width="25.922" height="14.572" style="fill:#fff;isolation:isolate;opacity:0.4"/>
    <rect x="303.266" y="148.506" width="14.258" height="14.572" style="fill:#fff;isolation:isolate;opacity:0.4"/>
    <rect x="73.295" y="148.506" width="109.484" height="14.572" style="fill:#263238"/>
    <rect x="73.295" y="148.506" width="109.484" height="14.572" style="fill:#fff;isolation:isolate;opacity:0.4"/>
    <rect x="122.557" y="148.506" width="60.233" height="14.572" style="fill:#fff;isolation:isolate;opacity:0.4"/>
    <rect x="65.974" y="340.176" width="285.402" height="46.374" style="fill:#263238"/>
    <rect x="65.974" y="340.176" width="285.402" height="46.374" style="fill:#fff;isolation:isolate;opacity:0.30000000000000004"/>
    <rect x="125.503" y="340.176" width="225.873" height="46.374" style="fill:#fff;isolation:isolate;opacity:0.30000000000000004"/>
    <rect x="205.5" y="347.054" width="70.894" height="39.496" style="opacity:0.2"/>
    <rect x="185.661" y="351.635" width="12.945" height="31.957" style="fill:#65B741"/>
    <rect x="168.586" y="351.635" width="12.945" height="31.957" style="fill:#65B741"/>
    <rect x="151.51" y="351.635" width="12.945" height="31.957" style="fill:#65B741"/>
    <rect x="134.435" y="351.635" width="12.945" height="31.957" style="fill:#65B741"/>
    <rect x="333.02" y="351.635" width="12.945" height="31.957" style="fill:#65B741"/>
    <rect x="315.945" y="351.635" width="12.945" height="31.957" style="fill:#65B741"/>
    <rect x="298.869" y="351.635" width="12.945" height="31.957" style="fill:#65B741"/>
    <rect x="281.794" y="351.635" width="12.945" height="31.957" style="fill:#65B741"/>
    <rect x="111.298" y="351.635" width="10.427" height="31.957" style="fill:#65B741"/>
    <rect x="97.542" y="351.635" width="10.427" height="31.957" style="fill:#65B741"/>
    <rect x="83.796" y="351.635" width="10.427" height="31.957" style="fill:#65B741"/>
    <rect x="70.051" y="351.635" width="10.427" height="31.957" style="fill:#65B741"/>
    <g style="isolation:isolate;opacity:0.5" transform="matrix(1.067201, 0, 0, 1.034209, -30.884987, -39.885277)">
      <rect x="202.91" y="378.57" width="12.13" height="30.9" style="fill:#fff"/>
      <rect x="186.91" y="378.57" width="12.13" height="30.9" style="fill:#fff"/>
      <rect x="170.91" y="378.57" width="12.13" height="30.9" style="fill:#fff"/>
      <rect x="154.91" y="378.57" width="12.13" height="30.9" style="fill:#fff"/>
    </g>
    <g style="isolation:isolate;opacity:0.5" transform="matrix(1.067201, 0, 0, 1.034209, -30.884987, -39.885277)">
      <rect x="340.99" y="378.57" width="12.13" height="30.9" style="fill:#fff"/>
      <rect x="324.99" y="378.57" width="12.13" height="30.9" style="fill:#fff"/>
      <rect x="308.99" y="378.57" width="12.13" height="30.9" style="fill:#fff"/>
      <rect x="292.99" y="378.57" width="12.13" height="30.9" style="fill:#fff"/>
    </g>
    <g style="isolation:isolate;opacity:0.5" transform="matrix(1.067201, 0, 0, 1.034209, -30.884987, -39.885277)">
      <rect x="133.23" y="378.57" width="9.77" height="30.9" style="fill:#fff"/>
      <rect x="120.34" y="378.57" width="9.77" height="30.9" style="fill:#fff"/>
      <rect x="107.46" y="378.57" width="9.77" height="30.9" style="fill:#fff"/>
      <rect x="94.58" y="378.57" width="9.77" height="30.9" style="fill:#fff"/>
    </g>
    <g style="isolation:isolate;opacity:0.5" transform="matrix(1.067201, 0, 0, 1.034209, -30.884987, -39.885277)">
      <rect x="272.01" y="378.57" width="12.07" height="30.9" style="fill:#fff"/>
      <rect x="256.09" y="378.57" width="12.07" height="30.9" style="fill:#fff"/>
      <rect x="221.5" y="378.57" width="30.74" height="30.9" style="fill:#fff"/>
    </g>
    <polygon points="276.384 347.054 251.667 386.55 205.5 386.55 205.5 347.054 276.384 347.054" style="opacity:0.1"/>
    <rect x="62.548" y="163.089" width="61.129" height="175.826" style="fill:#65B741"/>
    <rect x="62.548" y="163.089" width="61.129" height="175.826" style="fill:#fff;isolation:isolate;opacity:0.4"/>
    <rect x="69.667" y="163.089" width="1.067" height="175.826" style="opacity:0.1"/>
    <rect x="78.524" y="163.089" width="1.067" height="175.826" style="opacity:0.1"/>
    <rect x="87.382" y="163.089" width="1.067" height="175.826" style="opacity:0.1"/>
    <rect x="96.24" y="163.089" width="1.067" height="175.826" style="opacity:0.1"/>
    <rect x="105.087" y="163.089" width="1.067" height="175.826" style="opacity:0.1"/>
    <rect x="113.945" y="163.089" width="1.067" height="175.826" style="opacity:0.1"/>
    <g style="opacity:0.1" transform="matrix(1.067201, 0, 0, 1.034209, -30.884987, -39.885277)">
      <polygon points="113.96 196.25 87.55 238.84 87.55 218.22 101.17 196.25 113.96 196.25" style="fill:#fff"/>
      <polygon points="129.1 196.25 87.55 263.25 87.55 257.24 125.37 196.25 129.1 196.25" style="fill:#fff"/>
    </g>
    <g style="opacity:0.1" transform="matrix(1.067201, 0, 0, 1.034209, -30.884987, -39.885277)">
      <polygon points="144.83 246.2 144.83 266.82 87.55 359.2 87.55 338.58 144.83 246.2" style="fill:#fff"/>
      <polygon points="144.83 285.23 144.83 291.25 98.32 366.26 94.58 366.26 144.83 285.23" style="fill:#fff"/>
    </g>
    <rect x="120.103" y="156.211" width="235.766" height="190.853" style="fill:#65B741"/>
    <rect x="-120.103" y="-347.054" width="64.566" height="13.755" transform="matrix(-1, 0, 0, -1, 0, 0)" style="fill:#65B741"/>
    <rect x="-120.103" y="-169.956" width="64.566" height="13.755" transform="matrix(-1, 0, 0, -1, 0, 0)" style="fill:#65B741"/>
    <rect x="-120.103" y="-205.388" width="64.566" height="13.755" transform="matrix(-1, 0, 0, -1, 0, 0)" style="fill:#65B741"/>
    <rect x="-120.103" y="-240.799" width="64.566" height="13.755" transform="matrix(-1, 0, 0, -1, 0, 0)" style="fill:#65B741"/>
    <rect x="-120.103" y="-276.21" width="64.566" height="13.755" transform="matrix(-1, 0, 0, -1, 0, 0)" style="fill:#65B741"/>
    <rect x="-120.103" y="-311.642" width="64.566" height="13.755" transform="matrix(-1, 0, 0, -1, 0, 0)" style="fill:#65B741"/>
    <g style="isolation:isolate;opacity:0.6000000000000001" transform="matrix(1.067201, 0, 0, 1.034209, -30.884987, -39.885277)">
      <rect x="80.98" y="360.84" width="60.5" height="13.3" transform="translate(222.46 734.98) rotate(180)" style="fill:#fff"/>
      <rect x="80.98" y="189.61" width="60.5" height="13.3" transform="translate(222.46 392.51) rotate(180)" style="fill:#fff"/>
      <rect x="80.98" y="223.85" width="60.5" height="13.3" transform="translate(222.46 461.01) rotate(180)" style="fill:#fff"/>
      <rect x="80.98" y="258.1" width="60.5" height="13.3" transform="translate(222.46 529.5) rotate(180)" style="fill:#fff"/>
      <rect x="80.98" y="292.35" width="60.5" height="13.3" transform="translate(222.46 597.99) rotate(180)" style="fill:#fff"/>
      <rect x="80.98" y="326.59" width="60.5" height="13.3" transform="translate(222.46 666.49) rotate(180)" style="fill:#fff"/>
    </g>
    <rect x="120.103" y="156.211" width="235.766" height="190.853" style="fill:#fff;isolation:isolate;opacity:0.6000000000000001"/>
    <rect x="127.69" y="156.211" width="228.178" height="190.853" style="fill:#fff;isolation:isolate;opacity:0.4"/>
    <rect x="205.5" y="156.211" width="72.612" height="190.853" style="fill:#65B741"/>
    <rect x="283.939" y="169.956" width="64.171" height="163.343" style="fill:#65B741"/>
    <rect x="283.939" y="169.956" width="64.171" height="163.343" style="isolation: isolate; opacity: 0.5; fill: rgb(255, 255, 255);"/>
    <rect x="293.053" y="169.966" width="1.067" height="163.333" style="isolation: isolate; opacity: 0.1;"/>
    <rect x="304.27" y="169.966" width="1.067" height="163.333" style="isolation: isolate; opacity: 0.1;"/>
    <rect x="315.486" y="169.966" width="1.067" height="163.333" style="isolation: isolate; opacity: 0.1;"/>
    <rect x="326.702" y="169.966" width="1.067" height="163.333" style="isolation: isolate; opacity: 0.1;"/>
    <rect x="337.918" y="169.966" width="1.067" height="163.333" style="isolation: isolate; opacity: 0.1;"/>
    <path d="M 348.644 333.816 L 283.406 333.816 L 283.406 169.449 L 348.644 169.449 L 348.644 333.816 Z M 284.473 332.782 L 347.577 332.782 L 347.577 170.483 L 284.473 170.483 L 284.473 332.782 Z" style="isolation: isolate; opacity: 0.1;"/>
    <rect x="283.939" y="191.105" width="64.171" height="1.034" style="isolation: isolate; opacity: 0.1;"/>
    <rect x="283.939" y="204.86" width="64.171" height="1.034" style="isolation: isolate; opacity: 0.1;"/>
    <rect x="283.939" y="226.527" width="64.171" height="1.034" style="isolation: isolate; opacity: 0.1;"/>
    <rect x="283.939" y="240.282" width="64.171" height="1.034" style="isolation: isolate; opacity: 0.1;"/>
    <rect x="283.939" y="261.949" width="64.171" height="1.034" style="isolation: isolate; opacity: 0.1;"/>
    <rect x="283.939" y="275.704" width="64.171" height="1.034" style="isolation: isolate; opacity: 0.1;"/>
    <rect x="283.939" y="297.36" width="64.171" height="1.034" style="isolation: isolate; opacity: 0.1;"/>
    <rect x="283.939" y="311.115" width="64.171" height="1.034" style="isolation: isolate; opacity: 0.1;"/>
    <g style="opacity:0.1" transform="matrix(1.067201, 0, 0, 1.034209, -30.884987, -39.885277)">
      <polygon points="355.13 238.06 355.13 258.68 295 355.65 295 335.02 355.13 238.06" style="fill:#fff"/>
      <polygon points="355.13 277.08 355.13 283.1 306.93 360.84 303.19 360.84 355.13 277.08" style="fill:#fff"/>
    </g>
    <g style="opacity:0.1" transform="matrix(1.067201, 0, 0, 1.034209, -30.884987, -39.885277)">
      <polygon points="355.13 318.74 355.13 339.36 341.81 360.84 329.03 360.84 355.13 318.74" style="fill:#fff"/>
      <polygon points="355.13 357.76 355.13 360.84 353.22 360.84 355.13 357.76" style="fill:#fff"/>
    </g>
    <rect x="135.502" y="169.956" width="64.171" height="163.343" style="fill: rgb(101, 183, 65);"/>
    <rect x="134.875" y="169.956" width="64.171" height="163.343" style="fill:#fff;isolation:isolate;opacity:0.5"/>
    <g style="isolation:isolate;opacity:0.1" transform="matrix(1.067201, 0, 0, 1.034209, -30.574989, -40.274414)">
      <rect x="164.46" y="202.91" width="1" height="157.93"/>
      <rect x="174.96" y="202.91" width="1" height="157.93"/>
      <rect x="185.47" y="202.91" width="1" height="157.93"/>
      <rect x="195.98" y="202.91" width="1" height="157.93"/>
      <rect x="206.49" y="202.91" width="1" height="157.93"/>
      <path d="M216.54,361.34H155.41V202.41h61.13Zm-60.13-1h59.13V203.41H156.41Z"/>
      <rect x="155.91" y="223.35" width="60.13" height="1"/>
      <rect x="155.91" y="236.65" width="60.13" height="1"/>
      <rect x="155.91" y="257.6" width="60.13" height="1"/>
      <rect x="155.91" y="270.9" width="60.13" height="1"/>
      <rect x="155.91" y="291.85" width="60.13" height="1"/>
      <rect x="155.91" y="305.15" width="60.13" height="1"/>
      <rect x="155.91" y="326.09" width="60.13" height="1"/>
      <rect x="155.91" y="339.39" width="60.13" height="1"/>
    </g>
    <g style="opacity:0.1" transform="matrix(1.067201, 0, 0, 1.034209, -30.884987, -39.885277)">
      <polygon points="183.84 202.9 155.91 247.94 155.91 227.33 171.06 202.9 183.84 202.9" style="fill: rgb(255, 255, 255);"/>
      <polygon points="198.99 202.9 155.91 272.37 155.91 266.35 195.25 202.9 198.99 202.9" style="fill: rgb(255, 255, 255);"/>
    </g>
    <g style="opacity:0.1" transform="matrix(1.067201, 0, 0, 1.034209, -30.884987, -39.885277)">
      <polygon points="216.04 250.73 216.04 271.34 160.55 360.84 155.91 360.84 155.91 347.69 216.04 250.73" style="fill:#fff"/>
      <polygon points="216.04 289.74 216.04 295.77 175.69 360.84 171.95 360.84 216.04 289.74" style="fill:#fff"/>
    </g>
    <rect x="205.564" y="152.392" width="72.612" height="190.853" style="fill:#fff;opacity:0.7000000000000001"/>
    <polygon points="313.949 338.904 313.949 338.904 310.737 338.904 238.829 338.904 238.829 338.904 235.616 338.904 205.5 338.904 205.5 347.054 235.616 347.054 235.616 386.55 238.829 386.55 240.643 386.55 243.855 386.55 243.855 347.054 305.71 347.054 305.71 386.55 308.923 386.55 310.737 386.55 313.949 386.55 313.949 347.054 313.949 347.054 313.949 338.904" style="fill: rgb(101, 183, 65);"/>
    <polygon points="313.949 338.904 313.949 386.55 308.923 386.55 308.923 347.054 243.855 347.054 243.855 386.55 238.829 386.55 238.829 338.904 313.949 338.904" style="fill:#fff;isolation:isolate;opacity:0.30000000000000004"/>
    <rect x="213.248" y="227.044" width="14.631" height="106.255" style="fill:#65B741"/>
    <rect x="234.603" y="227.044" width="14.631" height="106.255" style="fill: rgb(101, 183, 65);"/>
    <rect x="255.957" y="227.044" width="14.631" height="106.255" style="fill:#65B741"/>
    <rect x="213.248" y="227.044" width="14.631" height="106.255" style="fill: rgb(255, 255, 255); isolation: isolate; opacity: 0.5;"/>
    <rect x="234.603" y="227.044" width="14.631" height="106.255" style="fill: rgb(255, 255, 255); isolation: isolate; opacity: 0.5;"/>
    <rect x="255.957" y="227.044" width="14.631" height="106.255" style="fill: rgb(255, 255, 255); isolation: isolate; opacity: 0.5;"/>
    <polygon points="263.823 186.545 261.678 186.545 248.978 186.545 248.978 172.159 248.978 172.159 246.833 172.159 237.004 172.159 237.004 172.159 234.869 172.159 234.869 186.545 222.159 186.545 222.159 186.545 220.025 186.545 220.025 198.148 222.159 198.148 222.159 198.148 234.869 198.148 234.869 212.534 237.004 212.534 237.004 212.534 246.833 212.534 248.978 212.534 248.978 212.534 248.978 198.148 261.678 198.148 263.823 198.148 263.823 198.148 263.823 186.545 263.823 186.545" style="fill: rgb(101, 183, 65);"/>
    <rect x="220.025" y="186.555" width="2.145" height="11.593" style="opacity:0.30000000000000004"/>
    <rect x="234.88" y="172.169" width="2.134" height="14.386" style="opacity:0.30000000000000004"/>
    <rect x="234.88" y="198.148" width="2.134" height="14.386" style="opacity:0.30000000000000004"/>
    <g id="freepik--Ambulance--inject-17" transform="matrix(1.067201, 0, 0, 1.034209, -30.884987, -39.885277)" style="">
      <path d="M328,409.14h-3.19c-3,0-5.51,2.93-5.51,6.53s2.47,6.53,5.51,6.53H328c3.05,0,5.52-2.92,5.52-6.53S331.08,409.14,328,409.14Z" style="fill:#263238"/>
      <path d="M333.55,415.67c0,3.61-2.47,6.53-5.52,6.53s-5.51-2.92-5.51-6.53,2.47-6.53,5.51-6.53S333.55,412.07,333.55,415.67Z" style="fill:#fff;isolation:isolate;opacity:0.2"/>
      <path d="M328,419.81c-1.69,0-3.12-1.9-3.12-4.14s1.43-4.13,3.12-4.13,3.13,1.89,3.13,4.13S329.73,419.81,328,419.81Z" style="opacity:0.2"/>
      <path d="M374.06,409.14h-3.18c-3.05,0-5.52,2.93-5.52,6.53s2.47,6.53,5.52,6.53h3.18c3.05,0,5.52-2.92,5.52-6.53S377.11,409.14,374.06,409.14Z" style="fill:#263238"/>
      <path d="M379.58,415.67c0,3.61-2.47,6.53-5.52,6.53s-5.51-2.92-5.51-6.53,2.47-6.53,5.51-6.53S379.58,412.07,379.58,415.67Z" style="fill:#fff;isolation:isolate;opacity:0.2"/>
      <path d="M374.06,419.81c-1.69,0-3.12-1.9-3.12-4.14s1.43-4.13,3.12-4.13,3.13,1.89,3.13,4.13S375.76,419.81,374.06,419.81Z" style="opacity:0.2"/>
      <path d="M325.53,396.49v17.85a2.81,2.81,0,0,0,2.8,2.8h76.74a2.81,2.81,0,0,0,2.81-2.8V396.49Z" style="fill:#263238"/>
      <path d="M354,409.14h-3.19c-3,0-5.51,2.93-5.51,6.53s2.47,6.53,5.51,6.53H354c3,0,5.52-2.92,5.52-6.53S357.09,409.14,354,409.14Z" style="fill:#263238"/>
      <path d="M359.56,415.67c0,3.61-2.47,6.53-5.52,6.53s-5.52-2.92-5.52-6.53,2.47-6.53,5.52-6.53S359.56,412.07,359.56,415.67Z" style="fill:#fff;isolation:isolate;opacity:0.2"/>
      <path d="M354,419.81c-1.69,0-3.12-1.9-3.12-4.14s1.43-4.13,3.12-4.13,3.13,1.89,3.13,4.13S355.74,419.81,354,419.81Z" style="fill:#fff;isolation:isolate;opacity:0.2"/>
      <path d="M400.07,409.14h-3.19c-3,0-5.51,2.93-5.51,6.53s2.47,6.53,5.51,6.53h3.19c3.05,0,5.52-2.92,5.52-6.53S403.12,409.14,400.07,409.14Z" style="fill:#263238"/>
      <path d="M405.59,415.67c0,3.61-2.47,6.53-5.52,6.53s-5.51-2.92-5.51-6.53,2.47-6.53,5.51-6.53S405.59,412.07,405.59,415.67Z" style="fill:#fff;isolation:isolate;opacity:0.2"/>
      <path d="M400.07,419.81c-1.69,0-3.12-1.9-3.12-4.14s1.43-4.13,3.12-4.13,3.13,1.89,3.13,4.13S401.77,419.81,400.07,419.81Z" style="fill:#fff;isolation:isolate;opacity:0.2"/>
      <path d="M367.45,373.13A1.86,1.86,0,0,1,365.6,375H346.06a1.86,1.86,0,1,1,0-3.71H365.6A1.85,1.85,0,0,1,367.45,373.13Z" style="fill:#65B741"/>
      <path d="M367.45,373.13A1.86,1.86,0,0,1,365.6,375H354.07a1.86,1.86,0,1,1,0-3.71H365.6A1.85,1.85,0,0,1,367.45,373.13Z" style="fill:#263238"/>
      <path d="M367.45,373.13A1.86,1.86,0,0,1,365.6,375h-8.53a1.86,1.86,0,1,1,0-3.71h8.53A1.85,1.85,0,0,1,367.45,373.13Z" style="fill:#65B741"/>
      <path d="M411.63,397.81v15.74a2,2,0,0,1-2,2h-3.07c-.05-4.09-3-7.4-6.51-7.4s-6.47,3.32-6.52,7.42l-33,.06c0-4.13-2.94-7.48-6.52-7.48s-6.51,3.37-6.52,7.51h-6.19l-.23,0H341l-24.45.05a2.57,2.57,0,0,1-2.58-2.8c.18-1.94.43-4.58.65-7,.08-.77.15-1.51.21-2.18a8.62,8.62,0,0,1,2.05-4.81v0a9.16,9.16,0,0,1,1-1l6.45-5.44,9.93-15.11a8.58,8.58,0,0,1,7.16-3.86h62.47a5.19,5.19,0,0,1,1.85.34,5.39,5.39,0,0,1,1.2.66,5.51,5.51,0,0,1,.68.6,4.91,4.91,0,0,1,1,1.53c.06.13.11.27.16.41a4.86,4.86,0,0,1,.21.95Z" style="fill:#65B741"/>
      <path d="M411.63,397.81v15.74a2,2,0,0,1-2,2h-3.07c-.05-4.09-3-7.4-6.51-7.4s-6.47,3.32-6.52,7.42l-33,.06c0-4.13-2.94-7.48-6.52-7.48s-6.51,3.37-6.52,7.51h-6.19l-.23,0H341l-24.45.05a2.57,2.57,0,0,1-2.58-2.8c.18-1.94.43-4.58.65-7,.08-.77.15-1.51.21-2.18a8.62,8.62,0,0,1,2.05-4.81v0a9.16,9.16,0,0,1,1-1l6.45-5.44,9.93-15.11a8.58,8.58,0,0,1,7.16-3.86h62.47a5.19,5.19,0,0,1,1.85.34,5.39,5.39,0,0,1,1.2.66,5.51,5.51,0,0,1,.68.6,4.91,4.91,0,0,1,1,1.53c.06.13.11.27.16.41a4.86,4.86,0,0,1,.21.95Z" style="fill:#fff;isolation:isolate;opacity:0.7000000000000001"/>
      <path d="M411.64,397.81v15.74a2,2,0,0,1-2,2h-3.07c0-4.09-3-7.4-6.51-7.4s-6.47,3.32-6.52,7.42l-33,.07h0c0-4.13-2.94-7.48-6.52-7.48s-6.51,3.37-6.52,7.51h-5.95a1,1,0,0,1-.24,0,1.65,1.65,0,0,1-.32,0,2.59,2.59,0,0,1-2-2.75c.16-1.83.4-4.3.62-6.57.08-.9.17-1.78.24-2.57a8.7,8.7,0,0,1,3.05-5.81l1.64-1.39,4.8-4,8-15.3a6.84,6.84,0,0,1,6.05-3.67H403.9a5.19,5.19,0,0,1,1.85.34,5.39,5.39,0,0,1,1.2.66,6.35,6.35,0,0,1,.68.6,4.91,4.91,0,0,1,1,1.53c.06.13.11.27.16.41a4.87,4.87,0,0,1,.22.95l2.38,18,.13,1Z" style="fill:#fff;isolation:isolate;opacity:0.30000000000000004"/>
      <polygon points="325.53 391.88 348.18 391.88 354.92 379.48 333.76 379.48 325.53 391.88" style="fill:#263238"/>
      <path d="M316.71,406a2.6,2.6,0,0,1-2.08-.07c.08-.77.15-1.51.22-2.18a8.48,8.48,0,0,1,2-4.81,4.58,4.58,0,0,1,.55,1.53C317.62,401.52,316.71,406,316.71,406Z" style="fill:#fff;isolation:isolate;opacity:0.6000000000000001"/>
      <path d="M318,400.78h17.88s-2.23,4.53-1.9,5.85a23.87,23.87,0,0,1-9.31,2c-5.19,0-7.23-2.43-7.23-2.43A41.18,41.18,0,0,0,318,400.78Z" style="opacity:0.2"/>
      <path d="M337.56,411.64a1.43,1.43,0,0,1-1.2,1.58c-.66,0-1.19-.71-1.19-1.58s.53-1.58,1.19-1.58A1.43,1.43,0,0,1,337.56,411.64Z" style="fill:#fff;isolation:isolate"/>
      <ellipse cx="316.05" cy="411.54" rx="1.19" ry="1.58" style="fill:#fff;isolation:isolate"/>
      <ellipse cx="332.65" cy="412.38" rx="0.64" ry="0.84" style="fill:#fff;isolation:isolate"/>
      <ellipse cx="318.57" cy="412.38" rx="0.64" ry="0.84" style="fill:#fff;isolation:isolate"/>
      <path d="M351,392.47l7.06-13h9.27v12.4s-7.56-.09-9.27,3.38H351Z" style="fill:#263238"/>
      <rect x="368.64" y="379.48" width="11.27" height="12.4" style="fill:#263238"/>
      <path d="M340.6,396.06h-.42l3.23-2.6h.4l-1.3,2.6h-.41l.31-.6h-1.07Zm2-1,.59-1.14-1.39,1.14Z" style="fill:#65B741"/>
      <path d="M337.57,396.06l2.26-2.6h.33l-.67,1.72,2.35-1.72h.33l-2.26,2.6h-.38l1.48-1.7-1.93,1.41h-.17l.54-1.43-1.51,1.72Z" style="fill:#65B741"/>
      <path d="M336.64,394.71c-.07-.11,0-.31.23-.57a1.83,1.83,0,0,1,1.37-.68h1l-2.27,2.6h-1.06c-.55,0-.61-.26-.22-.7A2.08,2.08,0,0,1,336.64,394.71Zm-.37,1h.65l.65-.75h-.64a1,1,0,0,0-.79.38C335.91,395.57,336,395.68,336.27,395.68Zm1.69-1.84a1,1,0,0,0-.75.36c-.21.24-.15.36.12.36h.57l.62-.72Z" style="fill:#65B741"/>
      <path d="M333.7,396.1c-.59,0-.58-.41.08-1.17l1.28-1.47h.39l-1.26,1.45c-.47.54-.47.77-.12.77a1.78,1.78,0,0,0,1.21-.77l1.26-1.45h.39l-1.27,1.47A2.88,2.88,0,0,1,333.7,396.1Z" style="fill:#65B741"/>
      <path d="M332.24,396.06h-1.52l.35-.41h1.12l1.91-2.19h.4Z" style="fill:#65B741"/>
      <path d="M328.78,396.06h-.41l3.23-2.6H332l-1.3,2.6h-.41l.31-.6h-1.07Zm2-1,.59-1.14-1.4,1.14Z" style="fill:#65B741"/>
      <path d="M328.85,393.46l-1.54,1.76,2.72-1.76h.32l-2.26,2.6h-.39l1.53-1.76-2.71,1.76h-.33l2.26-2.6Z" style="fill:#65B741"/>
      <path d="M324.59,396.1c-.36,0-.52-.15-.48-.44l.52-.29c0,.21.08.31.3.31a2.43,2.43,0,0,0,1.56-.92c.47-.54.48-.92,0-.92a1.65,1.65,0,0,0-.83.31v-.29a2.33,2.33,0,0,1,1.22-.44c.66,0,.66.56,0,1.34A3.64,3.64,0,0,1,324.59,396.1Z" style="fill:#65B741"/>
      <path d="M323.34,395.66l.62-.72h-1l.34-.4h1l.59-.68h-1.17l.35-.4h1.57l-2.27,2.6h-1.6l.35-.4Z" style="fill:#65B741"/>
      <rect x="394.26" y="380.55" width="2.69" height="11.33" style="fill:#65B741"/>
      <rect x="394.26" y="380.55" width="2.69" height="11.33" transform="translate(781.81 -9.39) rotate(90)" style="fill:#65B741"/>
      <path d="M411.53,397H376.1a23.47,23.47,0,0,0-12.88,3.83L361,402.29H343v-1h17.63l2-1.31a24.55,24.55,0,0,1,13.43-4h35.3Z" style="fill:#65B741"/>
      <path d="M334.67,406.3c.27-1.85,1.75-5.52,3.13-6.76s6.35-3.34,6.74-3c2.12,1.73-3.29,8.78-4.93,9.77S334.5,407.45,334.67,406.3Z" style="fill:#fff;isolation:isolate"/>
    </g>
    <rect x="150.146" y="218.391" width="174.477" height="72.098" style="stroke: rgb(0, 0, 0); fill: rgb(255, 255, 255); stroke-linejoin: round; vector-effect: non-scaling-stroke; stroke-width: 0px; stroke-linecap: round;"/>
    <text style="fill: rgb(101, 183, 65); font-family: Arial, sans-serif; font-size: 20.2px; font-weight: 700; text-anchor: middle; white-space: pre;" transform="matrix(1, 0, 0, 1, 122.284981, 83.607918)"><tspan x="117.983" y="167.227">PUSKESMAS </tspan><tspan x="117.983" dy="1em"></tspan><tspan>BONTO UJUNG</tspan></text>
  </g>
</svg>